<?xml version="1.0" standalone="no"?>
<!DOCTYPE svg PUBLIC "-//W3C//DTD SVG 20010904//EN"
 "http://www.w3.org/TR/2001/REC-SVG-20010904/DTD/svg10.dtd">
<svg version="1.0" xmlns="http://www.w3.org/2000/svg"
 width="1549.000000pt" height="1549.000000pt" viewBox="0 0 1549.000000 1549.000000"
 preserveAspectRatio="xMidYMid meet">
<metadata>
Created by potrace 1.11, written by Peter Selinger 2001-2013
</metadata>
<g transform="translate(0.000000,1549.000000) scale(0.100000,-0.100000)"
fill="#000000" stroke="none">
<path d="M5150 9035 c0 -11 -12 -15 -45 -15 -31 0 -47 -5 -51 -15 -4 -10 -20
-15 -45 -15 -26 0 -42 -5 -45 -15 -4 -9 -19 -15 -35 -15 -19 0 -29 -5 -29 -15
0 -8 -6 -15 -13 -15 -7 0 -20 -9 -30 -20 -9 -11 -23 -20 -31 -20 -8 0 -16 -7
-20 -15 -3 -8 -15 -15 -26 -15 -12 0 -18 -5 -15 -10 4 -6 -7 -13 -24 -16 -17
-4 -31 -13 -31 -20 0 -8 -3 -13 -7 -13 -26 4 -53 -3 -51 -13 2 -8 -10 -14 -29
-16 -18 -2 -33 -7 -33 -12 0 -5 -14 -11 -31 -15 -17 -4 -33 -13 -36 -21 -3 -8
-15 -14 -28 -14 -13 0 -25 -7 -29 -15 -3 -8 -12 -15 -21 -15 -8 0 -15 -4 -15
-9 0 -5 -13 -14 -30 -20 -16 -5 -30 -15 -30 -20 0 -6 -6 -11 -14 -11 -8 0 -16
-7 -20 -15 -3 -8 -12 -15 -21 -15 -8 0 -15 -7 -15 -15 0 -8 -7 -15 -15 -15 -8
0 -15 -7 -15 -15 0 -8 -7 -15 -15 -15 -8 0 -15 -7 -15 -15 0 -8 -7 -15 -15
-15 -8 0 -15 -7 -15 -15 0 -8 -7 -15 -15 -15 -8 0 -15 -9 -15 -20 0 -11 -7
-20 -15 -20 -8 0 -15 -6 -15 -14 0 -8 -7 -16 -15 -20 -8 -3 -15 -12 -15 -19 0
-8 -9 -24 -20 -37 -11 -13 -20 -31 -20 -42 0 -10 -4 -18 -10 -18 -5 0 -12 -15
-16 -34 -3 -19 -12 -37 -20 -40 -9 -3 -14 -20 -14 -45 0 -25 -5 -41 -15 -45
-11 -4 -15 -20 -15 -55 0 -31 -5 -51 -12 -53 -9 -3 -15 -42 -19 -124 -3 -65
-11 -146 -18 -179 -15 -66 -8 -272 9 -289 16 -16 13 -793 -2 -798 -9 -3 -14
-37 -16 -109 -3 -76 -8 -106 -18 -112 -9 -5 -14 -26 -14 -62 0 -40 -4 -55 -14
-55 -8 0 -15 -16 -19 -41 -3 -23 -10 -45 -15 -48 -6 -3 -14 -19 -17 -34 -4
-15 -11 -27 -15 -27 -5 0 -11 -13 -15 -29 -3 -16 -13 -32 -21 -35 -8 -3 -14
-12 -14 -21 0 -8 -7 -15 -15 -15 -8 0 -15 -6 -15 -14 0 -8 -7 -17 -16 -20 -8
-3 -12 -11 -9 -17 4 -6 -2 -13 -14 -16 -11 -3 -18 -10 -15 -15 3 -5 -3 -12
-15 -15 -12 -3 -21 -9 -21 -14 0 -5 -7 -9 -15 -9 -8 0 -15 -7 -15 -15 0 -8 -7
-15 -15 -15 -9 0 -18 -6 -21 -14 -3 -8 -19 -18 -35 -21 -16 -4 -29 -13 -29
-21 0 -9 -11 -14 -30 -14 -25 0 -30 -4 -30 -25 0 -16 6 -25 16 -25 8 0 12 5 9
10 -4 6 17 10 54 10 44 0 60 4 58 13 -1 8 14 13 46 15 37 2 47 7 43 17 -4 10
7 15 42 17 31 2 46 7 44 16 -1 8 10 12 33 12 24 0 35 5 35 14 0 9 12 16 33 18
17 2 31 8 30 14 -1 7 13 15 33 18 19 4 32 11 29 16 -3 4 8 11 24 15 16 3 32
13 35 21 3 8 12 14 21 14 8 0 15 7 15 15 0 8 3 14 8 14 27 -5 52 3 52 16 0 8
7 15 15 15 8 0 15 7 15 15 0 8 9 15 20 15 11 0 20 7 20 15 0 8 7 15 14 15 8 0
37 23 64 50 27 28 54 50 61 50 6 0 11 7 11 15 0 8 7 15 15 15 13 0 20 18 16
43 0 4 6 7 14 7 8 0 15 9 15 20 0 11 6 20 14 20 7 0 16 9 19 21 3 12 10 18 15
15 5 -3 13 10 16 29 4 20 11 33 15 30 5 -2 11 9 14 25 10 50 67 97 67 55 0 -8
7 -15 15 -15 8 0 15 -7 15 -15 0 -8 7 -15 15 -15 8 0 15 -7 15 -15 0 -9 7 -18
15 -21 8 -4 15 -12 15 -20 0 -8 6 -11 15 -8 10 4 15 0 15 -15 0 -12 6 -21 14
-21 8 0 16 -7 20 -15 3 -8 9 -15 13 -14 25 4 43 -3 43 -16 0 -8 7 -15 15 -15
9 0 18 -7 21 -15 4 -8 12 -15 20 -15 8 0 14 -7 14 -15 0 -9 9 -15 23 -15 12 0
33 -3 45 -7 18 -4 20 -8 10 -14 -8 -6 0 -9 25 -9 24 0 40 -5 43 -15 4 -10 21
-15 55 -15 31 0 51 -5 56 -14 6 -11 31 -15 98 -16 174 -3 246 0 241 9 -7 10
27 21 67 21 17 0 27 5 27 15 0 10 10 15 30 15 20 0 30 5 30 15 0 10 10 15 31
15 24 0 30 4 25 15 -4 10 1 15 14 15 11 0 20 7 20 15 0 8 7 15 15 15 8 0 15 7
15 15 0 8 7 15 15 15 8 0 15 6 15 14 0 7 9 16 21 19 12 3 18 10 14 17 -4 7 2
14 14 17 12 3 21 12 21 20 0 8 5 11 11 8 6 -4 13 2 16 14 3 12 12 21 20 21 9
0 13 6 9 15 -3 9 0 15 9 15 7 0 16 14 20 30 4 17 13 30 21 30 8 0 14 7 14 15
0 8 7 15 15 15 9 0 18 7 21 15 5 11 21 15 60 15 30 0 54 -3 53 -7 -3 -19 15
-53 27 -53 10 0 14 -13 14 -41 0 -22 4 -38 9 -35 13 8 21 -19 21 -70 0 -32 4
-44 15 -44 8 0 14 -3 14 -7 -1 -5 -1 -32 0 -60 1 -40 5 -53 16 -53 10 0 15
-10 15 -29 0 -54 8 -61 65 -61 46 0 53 3 59 23 3 12 6 298 6 634 0 565 1 614
17 633 16 18 30 20 134 20 131 0 129 -1 129 76 l0 44 -642 -2 -643 -3 2 -54
c2 -30 4 -56 6 -57 2 -2 91 -4 199 -4 l196 -1 6 -25 c4 -14 11 -22 16 -19 6 4
10 -114 10 -327 0 -183 -4 -327 -9 -320 -8 14 -21 -60 -21 -125 0 -23 -5 -33
-15 -33 -11 0 -15 -11 -15 -40 0 -31 -3 -38 -15 -34 -11 5 -15 -1 -15 -20 0
-16 -6 -26 -15 -26 -10 0 -15 -10 -15 -30 0 -20 -5 -30 -15 -30 -8 0 -15 -7
-15 -15 0 -8 -6 -15 -14 -15 -7 0 -16 -9 -19 -20 -3 -11 -12 -20 -21 -20 -9 0
-16 -7 -16 -15 0 -9 -9 -15 -25 -15 -16 0 -25 -6 -25 -15 0 -11 -11 -15 -36
-15 -28 0 -35 -3 -30 -15 5 -13 -14 -15 -133 -15 -114 0 -140 3 -145 15 -3 9
-18 15 -36 15 -20 0 -30 5 -30 15 0 8 -7 15 -15 15 -8 0 -15 7 -15 15 0 8 -7
15 -16 15 -9 0 -18 9 -21 20 -3 11 -12 20 -19 20 -9 0 -14 11 -14 30 0 19 -5
29 -12 28 -8 -2 -14 10 -16 30 -2 20 -9 32 -18 32 -10 0 -14 13 -14 45 0 31
-4 44 -12 43 -9 -2 -14 19 -16 72 -2 41 -8 79 -14 85 -8 7 -9 6 -4 -2 4 -7 2
-13 -3 -13 -8 0 -11 258 -11 848 0 517 4 841 9 833 12 -19 20 11 23 89 2 38 7
54 16 52 8 -1 12 13 12 48 0 38 4 50 15 50 14 0 20 18 15 49 -1 9 4 12 14 8
11 -5 16 0 16 13 0 11 6 20 14 20 7 0 16 9 19 21 3 12 10 18 16 14 6 -3 11 1
11 10 0 8 9 19 19 23 11 4 21 12 23 17 1 6 8 9 15 7 7 -2 13 4 13 12 0 11 13
18 40 22 22 4 37 10 35 14 -10 16 34 21 192 19 133 -1 163 -3 163 -15 0 -9 11
-14 30 -14 17 0 33 -6 36 -14 3 -8 19 -18 35 -21 16 -4 29 -13 29 -21 0 -9 4
-13 9 -10 4 3 19 -3 31 -14 13 -11 29 -20 37 -20 7 0 13 -7 13 -15 0 -8 9 -15
20 -15 12 0 17 -5 14 -14 -3 -8 3 -16 16 -19 11 -3 19 -11 18 -18 -2 -7 4 -13
12 -14 8 0 17 -13 20 -29 3 -17 10 -28 15 -25 6 2 11 -6 13 -19 2 -12 8 -20
13 -17 5 4 12 -2 16 -12 3 -10 12 -22 20 -26 7 -4 13 -19 13 -32 0 -16 6 -25
15 -25 14 0 20 -17 16 -47 -1 -7 5 -13 13 -13 8 0 17 -13 21 -30 4 -16 11 -30
15 -30 5 0 12 -16 16 -35 3 -19 11 -33 18 -32 6 1 14 -17 17 -43 3 -25 7 -38
8 -30 3 28 21 -12 21 -47 0 -23 5 -33 15 -33 11 0 15 -12 15 -44 0 -30 5 -46
15 -50 10 -3 15 -19 15 -45 0 -25 5 -41 14 -44 8 -3 16 -22 18 -44 l3 -38 57
-3 c53 -3 58 -1 63 20 3 13 4 262 3 553 l-3 530 -62 3 c-52 2 -63 0 -63 -13 0
-8 -7 -15 -15 -15 -10 0 -15 -10 -15 -30 0 -19 -5 -30 -14 -30 -9 0 -16 -12
-18 -32 -2 -20 -8 -32 -15 -31 -7 2 -13 -6 -13 -17 0 -18 -7 -20 -80 -20 -62
0 -80 3 -80 14 0 8 -14 17 -30 21 -17 4 -28 10 -25 15 3 5 -5 10 -17 12 -13 2
-22 9 -21 15 1 6 -11 14 -26 18 -16 3 -32 13 -35 21 -3 8 -19 14 -36 14 -20 0
-30 5 -30 15 0 10 -10 15 -30 15 -19 0 -30 5 -30 14 0 11 -14 16 -47 18 -32 2
-47 7 -45 16 1 9 -47 12 -218 12 -189 0 -220 -2 -220 -15z m243 -92 c-7 -2
-21 -2 -30 0 -10 3 -4 5 12 5 17 0 24 -2 18 -5z m680 -130 c-7 -2 -21 -2 -30
0 -10 3 -4 5 12 5 17 0 24 -2 18 -5z"/>
<path d="M7956 9035 c5 -12 -4 -15 -50 -15 -43 0 -56 -3 -56 -15 0 -11 -11
-15 -35 -15 -22 0 -38 -6 -41 -15 -4 -9 -19 -15 -35 -15 -18 0 -29 -5 -29 -14
0 -8 -11 -17 -25 -20 -14 -4 -23 -11 -20 -15 3 -5 -8 -12 -25 -16 -17 -4 -28
-11 -25 -16 3 -4 -6 -11 -20 -15 -13 -3 -22 -10 -19 -15 3 -5 -8 -12 -25 -15
-17 -4 -31 -13 -31 -20 0 -8 -7 -14 -15 -14 -8 0 -15 -7 -15 -15 0 -8 -7 -15
-15 -15 -8 0 -15 -7 -15 -15 0 -8 -7 -15 -15 -15 -8 0 -15 -7 -15 -15 0 -8 -6
-15 -14 -15 -7 0 -16 -9 -19 -21 -3 -12 -10 -18 -16 -14 -6 3 -11 -1 -11 -10
0 -8 -7 -18 -15 -21 -8 -4 -15 -12 -15 -20 0 -8 -9 -22 -20 -31 -11 -10 -20
-23 -20 -30 0 -7 -4 -13 -9 -13 -5 0 -12 -13 -16 -30 -4 -16 -13 -30 -21 -30
-8 0 -14 -7 -14 -15 0 -8 -5 -15 -11 -15 -5 0 -8 -4 -4 -9 3 -5 1 -12 -5 -16
-5 -3 -10 -15 -10 -26 0 -11 -7 -19 -17 -19 -15 0 -16 -2 -3 -10 9 -6 10 -10
3 -10 -6 0 -13 -15 -15 -32 -2 -20 -8 -32 -15 -31 -9 2 -13 -9 -13 -32 0 -23
-5 -35 -14 -35 -8 0 -15 -16 -19 -41 -3 -23 -10 -45 -15 -48 -5 -3 -11 -32
-14 -64 -3 -33 -10 -62 -16 -66 -10 -6 -20 -63 -22 -126 0 -21 -3 -26 -9 -16
-15 23 -24 -168 -18 -373 3 -112 9 -191 15 -195 6 -3 14 -40 18 -81 4 -41 11
-78 17 -81 5 -4 12 -31 15 -60 2 -30 10 -57 16 -61 7 -4 13 -24 14 -45 2 -21
9 -41 17 -46 9 -5 15 -23 15 -48 0 -22 4 -38 9 -35 11 7 21 -17 21 -50 0 -15
6 -24 15 -24 10 0 15 -10 15 -30 0 -19 5 -30 14 -30 8 0 17 -11 20 -25 4 -14
11 -23 16 -20 6 3 10 -5 10 -20 0 -14 6 -28 14 -31 8 -3 18 -19 21 -35 4 -16
13 -29 21 -29 8 0 14 -7 14 -15 0 -8 7 -15 15 -15 8 0 15 -7 15 -15 0 -8 7
-15 15 -15 8 0 15 -6 15 -14 0 -8 7 -17 16 -20 9 -4 14 -9 11 -12 -7 -7 37
-54 52 -54 6 0 11 -7 11 -15 0 -8 5 -15 11 -15 6 0 17 -7 25 -15 9 -8 24 -15
35 -15 10 0 19 -7 19 -15 0 -8 7 -15 15 -15 8 0 15 -7 15 -15 0 -8 9 -15 19
-15 10 0 21 -7 25 -15 3 -8 14 -15 25 -15 28 0 52 -11 45 -21 -3 -5 11 -9 30
-9 19 0 39 -6 43 -14 6 -11 51 -20 123 -26 3 0 -2 -5 -10 -10 -10 -6 41 -10
153 -10 137 0 171 3 183 15 9 8 33 15 55 15 25 0 38 4 37 12 -2 7 8 14 22 16
14 2 29 10 33 18 4 8 19 14 32 14 16 0 25 6 25 15 0 8 7 15 15 15 8 0 15 7 15
15 0 8 4 15 9 15 13 0 91 76 91 89 0 6 7 11 15 11 8 0 15 7 15 15 0 8 7 15 15
15 8 0 15 7 15 15 0 8 7 15 15 15 8 0 15 6 15 13 0 7 9 20 20 30 12 10 18 22
15 27 -4 6 1 13 9 16 9 3 16 12 16 20 0 8 9 14 20 14 11 0 20 7 20 15 0 12 13
15 56 15 34 0 53 -4 49 -10 -3 -5 -1 -10 4 -10 6 0 11 -9 11 -20 0 -11 7 -20
15 -20 10 0 15 -10 15 -30 0 -18 6 -33 15 -36 11 -5 15 -22 15 -65 0 -46 3
-59 15 -59 11 0 15 -12 15 -49 0 -31 6 -55 15 -65 8 -8 15 -23 15 -33 1 -54
10 -63 65 -63 39 0 54 4 59 16 3 9 6 297 6 640 0 548 2 624 15 624 8 0 15 7
15 15 0 13 21 15 125 15 l125 0 0 60 0 60 -640 0 -640 0 0 -60 0 -60 188 -2
c234 -1 216 0 221 -23 2 -11 8 -23 15 -27 16 -10 21 -563 6 -615 -6 -21 -15
-69 -20 -108 -4 -38 -13 -71 -19 -73 -6 -2 -11 -14 -11 -26 0 -13 -9 -33 -20
-46 -11 -13 -20 -29 -20 -37 0 -7 -4 -13 -9 -13 -5 0 -12 -13 -16 -30 -4 -16
-13 -30 -21 -30 -8 0 -14 -6 -14 -14 0 -8 -7 -16 -15 -20 -8 -3 -15 -12 -15
-21 0 -8 -7 -15 -15 -15 -8 0 -15 -7 -15 -15 0 -10 -10 -15 -30 -15 -20 0 -30
-5 -30 -15 0 -10 -10 -15 -30 -15 -20 0 -30 -5 -30 -15 0 -13 -22 -15 -135
-15 -103 0 -134 3 -133 13 2 7 -11 13 -34 15 -25 2 -38 8 -38 18 0 8 -5 14
-12 14 -15 0 -80 70 -95 103 -7 15 -16 27 -20 27 -5 0 -9 12 -10 26 0 15 -6
29 -11 33 -6 3 -13 24 -16 46 -4 21 -11 42 -16 45 -5 3 -13 39 -16 80 -4 41
-12 78 -18 82 -16 10 -16 1629 0 1649 7 8 14 43 17 78 3 35 10 67 16 70 6 4
13 27 17 51 4 25 12 48 18 52 11 7 12 11 15 43 0 8 8 15 16 15 8 0 15 7 15 15
0 8 7 15 15 15 8 0 15 4 15 10 0 14 72 86 82 82 5 -1 11 4 14 13 3 8 21 17 40
21 18 3 38 12 45 20 17 21 334 20 346 0 4 -8 22 -16 38 -18 17 -1 29 -8 28
-15 -1 -6 11 -14 26 -18 16 -3 32 -13 35 -21 3 -8 15 -14 26 -14 12 0 18 -5
15 -10 -4 -6 7 -13 24 -16 17 -4 31 -13 31 -20 0 -8 7 -14 15 -14 8 0 15 -7
15 -15 0 -8 7 -15 15 -15 8 0 15 -7 15 -15 0 -8 5 -15 11 -15 5 0 15 -13 20
-30 6 -16 15 -30 20 -30 5 0 9 -7 9 -15 0 -8 7 -15 15 -15 8 0 15 -9 15 -20 0
-11 6 -20 14 -20 8 0 17 -13 21 -30 4 -16 10 -30 15 -30 5 0 11 -13 15 -30 4
-16 13 -30 21 -30 9 0 14 -11 14 -30 0 -19 5 -30 14 -30 9 0 16 -12 18 -32 2
-20 8 -32 16 -31 8 2 12 -9 12 -32 0 -24 5 -35 15 -35 11 0 15 -12 15 -45 0
-33 4 -45 15 -45 11 0 15 -11 15 -40 0 -22 6 -42 14 -47 7 -4 16 -28 19 -52 3
-24 10 -47 15 -50 5 -3 12 -23 16 -43 l7 -38 59 0 60 0 0 555 0 555 -65 0
c-51 0 -65 -3 -65 -15 0 -8 -7 -15 -15 -15 -10 0 -15 -10 -15 -30 0 -20 -5
-30 -15 -30 -11 0 -15 -11 -15 -36 0 -22 -4 -33 -11 -29 -6 4 -13 -3 -16 -14
-5 -20 -11 -22 -82 -19 -54 2 -75 7 -74 16 2 6 -6 12 -16 12 -11 0 -26 7 -35
15 -8 8 -20 15 -26 15 -6 0 -13 6 -16 14 -3 8 -19 18 -35 21 -16 4 -29 13 -29
21 0 9 -11 14 -30 14 -20 0 -30 5 -30 15 0 10 -11 15 -35 15 -24 0 -35 5 -35
15 0 11 -12 15 -51 15 -41 0 -50 3 -45 15 5 13 -23 15 -214 15 -191 0 -219 -2
-214 -15z m922 -222 c-10 -2 -26 -2 -35 0 -10 3 -2 5 17 5 19 0 27 -2 18 -5z"/>
<path d="M10787 9035 c3 -9 2 -15 -3 -14 -30 5 -104 -3 -104 -12 0 -5 5 -7 10
-4 6 3 10 1 10 -4 0 -6 -20 -11 -45 -11 -32 0 -45 -4 -45 -14 0 -9 -12 -16
-32 -18 -18 -2 -32 -8 -31 -14 1 -7 -12 -15 -30 -18 -23 -5 -28 -9 -18 -15 10
-7 5 -11 -18 -16 -17 -3 -31 -13 -31 -21 0 -8 -5 -14 -11 -14 -6 0 -17 -7 -25
-15 -9 -8 -24 -15 -35 -15 -10 0 -19 -7 -19 -15 0 -8 -7 -15 -15 -15 -8 0 -15
-7 -15 -15 0 -8 -7 -15 -15 -15 -8 0 -15 -7 -15 -15 0 -9 -9 -15 -21 -15 -15
0 -19 -5 -15 -15 3 -9 0 -15 -10 -15 -9 0 -18 -9 -21 -20 -3 -11 -10 -17 -15
-14 -5 3 -12 -3 -15 -15 -3 -12 -12 -21 -19 -21 -8 0 -14 -10 -14 -25 0 -16
-6 -25 -15 -25 -8 0 -15 -9 -15 -20 0 -11 -7 -20 -15 -20 -10 0 -15 -10 -15
-30 0 -20 -5 -30 -15 -30 -8 0 -15 -6 -15 -13 0 -8 -9 -24 -20 -37 -11 -13
-20 -27 -20 -32 0 -5 -7 -16 -15 -24 -8 -9 -15 -31 -15 -50 0 -22 -4 -33 -12
-31 -8 1 -15 -13 -18 -36 -3 -21 -9 -37 -15 -37 -5 0 -11 -18 -13 -40 -2 -27
-8 -40 -18 -40 -11 0 -14 -14 -14 -60 0 -45 -4 -62 -15 -66 -11 -5 -15 -22
-15 -65 0 -44 -4 -61 -15 -65 -13 -5 -15 -48 -15 -300 0 -230 3 -293 13 -292
8 2 13 -18 15 -69 2 -56 6 -73 17 -73 12 0 15 -15 15 -65 0 -51 3 -65 15 -65
11 0 15 -11 15 -40 0 -27 5 -43 15 -46 8 -4 15 -18 15 -34 0 -35 10 -61 20
-55 4 2 10 -13 14 -34 3 -21 13 -41 21 -45 8 -3 15 -9 14 -13 -4 -25 3 -43 16
-43 10 0 15 -10 15 -32 0 -25 3 -29 10 -18 7 12 11 8 16 -17 4 -18 13 -33 20
-33 9 0 14 -11 14 -30 0 -20 5 -30 15 -30 8 0 15 -7 15 -15 0 -8 7 -15 15 -15
8 0 15 -7 15 -15 0 -8 7 -15 15 -15 8 0 15 -7 15 -15 0 -8 7 -15 15 -15 8 0
15 -6 15 -13 0 -14 27 -40 54 -50 9 -4 14 -12 11 -18 -4 -6 2 -13 14 -16 12
-3 21 -12 21 -19 0 -9 11 -14 30 -14 20 0 30 -5 30 -15 0 -8 7 -15 15 -15 8 0
15 -7 15 -15 0 -8 9 -15 20 -15 11 0 20 -6 20 -12 0 -9 4 -8 10 2 8 13 10 12
10 -2 0 -11 8 -18 20 -18 12 0 20 -7 20 -17 0 -15 2 -16 10 -3 6 10 10 11 10
3 0 -8 14 -13 35 -13 24 0 35 -5 35 -15 0 -11 11 -15 38 -15 20 0 48 -3 61 -7
23 -6 23 -7 5 -14 -10 -4 61 -8 158 -8 112 -1 178 3 180 9 2 6 21 13 43 17 22
3 44 12 48 20 4 7 19 13 31 13 13 0 26 7 30 15 3 8 17 15 31 15 16 0 25 6 25
15 0 8 7 15 15 15 8 0 15 7 15 15 0 8 6 15 13 15 7 0 24 13 37 30 14 16 31 29
38 30 6 0 12 7 12 15 0 9 7 18 15 21 8 4 15 12 15 20 0 8 7 14 15 14 8 0 15 7
15 15 0 8 7 15 15 15 8 0 15 7 15 15 0 8 7 15 15 15 8 0 16 7 16 15 1 8 2 19
3 24 1 13 55 61 67 61 6 0 7 5 4 10 -4 6 16 10 52 10 41 0 54 -3 43 -10 -13
-8 -12 -10 3 -10 9 0 17 -7 17 -15 0 -9 7 -18 15 -21 8 -4 15 -19 15 -35 0
-15 6 -32 14 -36 7 -4 15 -32 18 -62 3 -29 10 -56 16 -60 5 -3 13 -31 16 -60
3 -30 11 -58 17 -62 6 -3 13 -25 16 -48 6 -41 17 -53 26 -28 4 10 6 10 6 0 1
-20 77 -17 85 3 3 9 6 295 6 636 0 541 2 621 15 635 20 20 31 21 158 22 l108
1 -3 58 -3 57 -637 3 -638 2 0 -60 0 -60 183 0 c200 0 227 -4 227 -30 0 -10 7
-20 15 -24 13 -5 15 -47 15 -300 0 -288 -3 -332 -21 -320 -5 3 -9 -35 -9 -85
0 -74 -3 -91 -15 -91 -10 0 -15 -10 -15 -29 0 -16 -6 -31 -15 -35 -8 -3 -15
-14 -15 -25 0 -11 -9 -25 -20 -31 -11 -6 -19 -14 -19 -18 4 -24 -3 -42 -16
-42 -8 0 -15 -9 -15 -21 0 -12 -4 -17 -11 -14 -6 4 -13 -2 -16 -14 -3 -12 -12
-21 -19 -21 -8 0 -14 -7 -14 -15 0 -10 -10 -15 -30 -15 -20 0 -30 -5 -30 -15
0 -10 -10 -15 -30 -15 -20 0 -30 -5 -30 -15 0 -13 -22 -15 -140 -15 -118 0
-140 2 -140 15 0 10 -10 15 -30 15 -18 0 -33 6 -36 15 -4 8 -12 15 -20 15 -8
0 -14 7 -14 15 0 8 -7 15 -15 15 -8 0 -15 9 -15 20 0 11 -7 20 -15 20 -9 0
-15 9 -15 25 0 15 -6 25 -14 25 -8 0 -17 15 -20 35 -4 20 -11 33 -16 30 -5 -3
-12 17 -16 44 -4 28 -10 49 -14 46 -10 -6 -20 46 -20 109 0 31 -4 46 -9 38 -5
-9 -10 -1 -14 25 -9 49 -9 1611 0 1641 4 18 8 20 14 10 5 -8 9 10 9 47 0 67 8
107 20 100 4 -3 10 18 14 46 4 27 11 47 15 44 10 -6 21 18 21 46 0 10 7 19 15
19 8 0 15 9 15 20 0 13 5 18 15 14 11 -4 15 0 15 16 0 16 4 20 15 16 10 -4 15
1 15 14 0 11 6 20 14 20 8 0 16 7 20 15 3 8 12 15 20 15 7 0 16 7 20 15 3 10
19 15 43 15 25 0 33 3 25 9 -24 15 26 21 173 21 143 0 189 -6 179 -21 -3 -5
10 -9 28 -9 21 0 40 -7 51 -20 10 -12 22 -18 27 -15 5 3 14 -4 20 -15 6 -11
15 -20 21 -20 6 0 17 -7 25 -15 9 -8 24 -15 35 -15 10 0 19 -7 19 -15 0 -8 7
-15 15 -15 8 0 15 -7 15 -15 0 -8 7 -15 15 -15 8 0 15 -7 15 -15 0 -8 7 -15
15 -15 8 0 15 -9 15 -19 0 -11 6 -26 13 -33 7 -7 16 -21 20 -31 3 -9 12 -16
19 -15 11 3 14 -2 17 -37 0 -8 8 -15 16 -15 8 0 15 -9 15 -20 0 -11 7 -20 15
-20 10 0 15 -10 15 -30 0 -20 5 -30 15 -30 10 0 15 -10 15 -30 0 -20 5 -30 15
-30 10 0 15 -10 15 -29 0 -16 6 -31 15 -35 8 -3 15 -16 15 -30 0 -13 3 -32 6
-41 5 -13 8 -14 15 -3 6 8 9 -5 9 -34 0 -34 4 -48 14 -48 8 0 16 -16 19 -42 3
-24 10 -44 16 -46 6 -2 13 -26 17 -53 4 -27 10 -46 15 -44 4 3 12 -14 16 -37
l9 -43 57 -3 57 -3 0 556 0 555 -65 0 c-51 0 -65 -3 -65 -15 0 -8 -4 -15 -10
-15 -5 0 -12 -16 -16 -35 -3 -19 -10 -32 -15 -30 -4 3 -11 -10 -15 -30 -3 -19
-11 -32 -16 -29 -5 3 -12 -3 -15 -15 -3 -12 -13 -21 -24 -21 -11 0 -19 -4 -19
-10 0 -5 -12 -10 -27 -9 l-28 1 25 8 c20 6 14 8 -27 9 -40 1 -53 5 -53 16 0 8
-9 15 -20 15 -11 0 -28 9 -37 19 -9 11 -20 18 -25 15 -4 -3 -11 1 -14 10 -3 8
-18 18 -34 21 -16 3 -31 13 -34 21 -3 8 -17 14 -31 14 -16 0 -25 6 -25 15 0
10 -11 15 -35 15 -24 0 -35 5 -35 15 0 11 -12 15 -45 15 -33 0 -45 4 -45 15 0
13 -32 15 -225 15 -198 0 -224 -2 -218 -15z m236 -92 c-7 -2 -19 -2 -25 0 -7
3 -2 5 12 5 14 0 19 -2 13 -5z"/>
<path d="M2902 8427 c-18 -18 -32 -38 -32 -45 0 -7 -7 -12 -15 -12 -8 0 -15
-7 -15 -15 0 -9 -7 -18 -15 -21 -8 -4 -15 -14 -15 -23 0 -9 -9 -34 -20 -56
-11 -22 -20 -47 -20 -56 0 -10 -5 -19 -10 -21 -6 -2 -13 -21 -17 -43 -3 -22
-11 -43 -17 -47 -16 -11 -15 -400 1 -405 7 -3 15 -27 19 -54 4 -27 10 -46 15
-43 5 3 9 -3 9 -12 0 -17 31 -93 51 -124 5 -8 14 -27 20 -42 6 -16 15 -28 20
-28 5 0 9 -9 9 -20 0 -11 7 -20 15 -20 9 0 15 -9 15 -25 0 -14 7 -28 15 -31 8
-4 15 -13 15 -20 0 -8 6 -17 14 -20 8 -3 17 -16 20 -30 4 -13 11 -24 16 -24 6
0 10 -6 10 -13 0 -7 13 -24 30 -37 16 -14 29 -30 30 -35 0 -6 9 -18 20 -28 11
-9 20 -24 20 -32 0 -8 7 -15 15 -15 8 0 15 -7 15 -15 0 -9 7 -18 15 -21 8 -4
15 -12 15 -20 0 -8 7 -14 15 -14 9 0 15 -9 15 -25 0 -14 6 -28 14 -31 8 -3 16
-15 19 -26 3 -11 10 -17 15 -14 6 3 13 -6 16 -19 4 -14 10 -23 15 -20 5 2 12
-6 15 -20 4 -14 11 -25 16 -25 6 0 10 -7 10 -15 0 -9 6 -18 14 -21 8 -3 19
-19 25 -35 5 -16 15 -29 20 -29 6 0 11 -11 11 -24 0 -13 7 -26 15 -30 8 -3 15
-12 15 -19 0 -8 6 -20 14 -27 8 -6 16 -21 18 -33 2 -12 8 -21 14 -20 7 1 14
-16 17 -39 3 -22 10 -44 16 -47 5 -4 11 -19 13 -34 3 -16 9 -32 15 -35 8 -5
26 -133 25 -179 0 -5 5 -14 11 -21 7 -9 7 -16 0 -20 -5 -4 -13 -38 -17 -77 -4
-38 -11 -71 -16 -73 -12 -4 -24 -67 -16 -87 3 -8 12 -12 21 -9 8 3 13 10 10
14 -3 4 4 10 15 13 11 3 20 12 20 21 0 9 6 16 14 16 8 0 17 11 20 25 4 14 11
25 16 25 6 0 10 9 10 20 0 11 6 20 14 20 8 0 17 14 21 30 4 17 10 30 15 30 5
0 11 14 15 30 4 17 10 30 15 30 4 0 11 12 14 26 4 15 14 33 21 41 8 8 15 25
15 39 0 13 4 24 10 24 5 0 12 17 15 38 3 20 11 46 18 57 6 11 14 52 18 90 3
39 12 96 20 128 11 49 11 62 -1 90 -7 17 -15 66 -17 107 -3 45 -9 79 -17 85
-7 6 -16 28 -19 50 -4 22 -11 41 -17 43 -5 2 -10 16 -10 32 0 16 -6 35 -14 42
-7 8 -17 24 -20 36 -4 12 -11 22 -16 22 -4 0 -11 12 -14 26 -4 15 -14 33 -21
41 -8 8 -15 23 -15 34 0 10 -7 19 -15 19 -8 0 -15 8 -15 19 0 10 -7 24 -15 31
-8 7 -15 19 -15 26 0 8 -7 14 -15 14 -8 0 -15 9 -15 20 0 11 -7 20 -15 20 -8
0 -15 6 -15 13 0 6 -14 26 -30 44 -17 18 -30 35 -30 39 0 4 -21 28 -47 55 -27
26 -65 66 -85 89 -21 22 -42 40 -48 40 -5 0 -10 7 -10 15 0 8 -4 15 -9 15 -13
0 -211 199 -211 211 0 5 -7 9 -15 9 -8 0 -15 4 -15 10 0 9 -18 33 -46 64 -5 6
-13 19 -17 29 -3 9 -11 17 -16 17 -5 0 -12 14 -16 30 -4 17 -11 28 -16 24 -5
-3 -10 4 -10 15 -1 12 -3 26 -4 31 -1 6 -3 26 -4 46 0 21 -5 33 -11 29 -6 -4
-10 7 -10 27 0 22 3 28 9 20 5 -9 10 7 14 44 3 31 10 60 15 63 5 3 13 21 17
39 3 17 11 32 16 32 5 0 9 7 9 15 0 25 -24 17 -58 -18z"/>
<path d="M2320 7263 c0 -7 -6 -13 -14 -13 -7 0 -16 -10 -20 -22 -9 -35 -7
-226 3 -232 4 -3 11 -22 14 -42 8 -48 69 -173 85 -174 6 0 12 -6 12 -13 0 -7
13 -24 30 -37 16 -14 29 -31 30 -37 0 -7 6 -13 14 -13 8 0 16 -7 20 -15 3 -8
13 -15 21 -15 9 0 13 -5 10 -11 -4 -6 2 -13 14 -16 12 -3 21 -12 21 -19 0 -8
9 -14 19 -14 11 0 26 -7 35 -15 8 -8 22 -15 30 -15 9 0 16 -7 16 -15 0 -9 9
-15 25 -15 14 0 28 -6 31 -14 3 -8 19 -18 35 -21 16 -4 29 -11 29 -15 0 -5 16
-12 35 -16 19 -3 33 -10 30 -14 -3 -5 8 -11 25 -15 16 -4 30 -11 30 -15 0 -5
16 -12 35 -16 19 -3 33 -10 30 -14 -6 -9 19 -20 46 -20 10 0 19 -7 19 -15 0
-9 9 -15 25 -15 14 0 28 -6 31 -14 3 -8 15 -16 26 -19 11 -3 17 -10 14 -15 -3
-6 5 -13 19 -16 14 -4 42 -24 63 -44 20 -21 45 -41 55 -45 9 -3 17 -12 17 -18
0 -6 11 -22 24 -34 14 -13 30 -41 36 -64 6 -22 15 -41 20 -41 5 0 10 -21 12
-47 3 -44 5 -48 30 -51 25 -3 27 0 32 40 3 24 8 59 12 78 14 76 -5 311 -26
318 -5 2 -12 19 -16 38 -3 19 -10 34 -14 34 -5 0 -11 14 -15 30 -4 17 -10 30
-15 30 -9 0 -34 40 -46 73 -3 9 -13 17 -20 17 -8 0 -14 7 -14 15 0 8 -7 15
-15 15 -8 0 -15 7 -15 15 0 9 -8 19 -17 22 -26 10 -53 36 -53 50 0 7 -11 13
-24 13 -13 0 -26 7 -30 15 -3 8 -12 15 -21 15 -8 0 -15 7 -15 15 0 10 -10 15
-30 15 -20 0 -30 5 -30 15 0 8 -7 15 -15 15 -8 0 -32 9 -52 20 -21 11 -43 20
-50 20 -7 0 -13 4 -13 10 0 5 -17 12 -37 16 -21 4 -41 11 -44 16 -3 5 -26 12
-50 15 -24 3 -48 12 -52 19 -5 9 -26 14 -53 14 -25 0 -43 4 -40 9 7 11 -17 21
-54 21 -16 0 -30 7 -34 15 -3 9 -18 15 -36 15 -20 0 -30 5 -30 15 0 8 -4 15
-9 15 -21 0 -80 47 -85 68 -4 12 -10 22 -15 22 -5 0 -12 28 -16 63 -7 56 -24
112 -25 80z"/>
<path d="M2220 6290 c0 -27 4 -50 10 -50 5 0 12 -11 16 -24 3 -14 12 -27 20
-30 8 -3 14 -12 14 -21 0 -8 7 -15 15 -15 8 0 15 -7 15 -15 0 -8 9 -15 20 -15
11 0 19 -6 17 -12 -1 -8 10 -14 26 -16 15 -2 27 -9 27 -18 0 -10 13 -14 46
-14 37 0 45 -3 40 -15 -5 -13 28 -15 262 -15 264 0 317 -4 306 -21 -3 -5 8 -9
25 -9 16 0 36 -6 43 -14 8 -7 24 -17 36 -20 12 -4 22 -14 22 -22 0 -8 6 -14
14 -14 8 0 16 -7 20 -15 6 -17 48 -15 54 3 2 7 -1 12 -7 12 -6 0 -11 13 -11
29 0 29 -28 93 -43 99 -4 2 -14 19 -22 38 -8 19 -19 34 -24 34 -6 0 -11 7 -11
15 0 8 -7 15 -15 15 -8 0 -15 7 -15 15 0 8 -6 15 -14 15 -8 0 -16 7 -20 15 -3
8 -17 15 -31 15 -16 0 -25 6 -25 15 0 10 -10 15 -34 15 -19 0 -41 7 -50 15
-12 12 -50 15 -211 15 -161 0 -199 -3 -211 -15 -12 -11 -40 -15 -114 -15 -78
0 -99 3 -104 15 -3 8 -13 15 -23 15 -10 0 -24 13 -31 30 -20 44 -32 37 -32
-20z"/>
</g>
</svg>
